<svg width="375" height="442" viewBox="0 0 375 442" fill="none" xmlns="http://www.w3.org/2000/svg">
<path d="M375 273.366C375 273.366 302.933 436.04 191.1 441.634C79.2667 447.229 0 386.755 0 386.755V0H375V273.366Z" fill="url(#paint0_linear_698_3703)"/>
<path d="M141.3 344.458C121.1 399.779 126.867 437.156 126.867 437.156C146.033 440.97 165.5 442.532 184.967 441.841C209.633 440.97 232.433 432.615 253.1 419.938C253.8 389.209 244.167 361.785 237.3 346.202C193.133 369.485 154.6 352.086 141.3 344.458Z" fill="#AB8DA8"/>
<path d="M147.233 329.566C145.067 334.651 143.067 339.627 141.333 344.458C154.6 352.086 193.167 369.521 237.3 346.202C233.533 337.666 230.567 332.689 230.567 332.689C230.567 332.689 174.4 266.145 147.233 329.566Z" fill="#FEF9EF"/>
<path d="M191.1 441.442V422.299L206.367 410.749L196.267 426.113L197.3 440.897L191.1 441.442Z" fill="#543753"/>
<path d="M118.533 209.698C118.533 209.698 117 210.316 116.733 227.243C116.467 244.169 115.3 277.841 115.3 277.841C115.3 277.841 101.2 263.566 100.167 256.374C99.1332 249.182 99.5666 242.716 98.8666 238.757C98.1666 234.798 98.0332 223.973 98.3332 221.939C98.6332 219.905 93.8999 219.578 92.5999 222.593C91.2999 225.608 90.8666 235.633 90.1999 235.997C89.5332 236.36 81.8999 237.123 81.1665 238.939C80.4332 240.755 81.7332 244.06 80.5999 246.821C79.4665 249.581 80.6999 251.543 80.5999 253.65C80.4999 255.756 80.0332 256.556 80.8999 259.752C81.7665 262.948 81.9332 265.636 83.3332 266.145L84.7332 266.653L89.6332 268.47C89.6332 268.47 110.633 320.013 121.033 321.139C131.433 322.265 136.867 313.256 138.167 305.992C139.467 298.727 146.433 255.212 146.433 255.212L118.533 209.698Z" fill="#FFEDE5"/>
<path d="M130.333 245.513L141.867 283.689L146.433 255.175L130.333 245.513Z" fill="#E0855C"/>
<path d="M115.3 277.805C115.3 277.805 125.1 286.777 128.333 294.15C128.333 294.15 123.1 279.04 115.5 272.029L115.3 277.805Z" fill="#E0855C"/>
<path d="M86.3665 265.927C86.3665 265.927 96.5998 265.636 97.4331 264.946C98.2664 264.256 98.2998 260.987 97.8664 260.587C97.8664 260.587 98.6998 255.829 97.9331 254.594C97.9331 254.594 98.2331 251.071 97.8998 249C97.8998 249 99.5998 259.607 99.3998 261.278C99.1998 262.948 99.9998 265.782 95.3998 266.617C90.7998 267.453 86.3665 265.927 86.3665 265.927Z" fill="#E0855C"/>
<path d="M97.9332 254.667C97.8999 254.667 97.8999 254.667 97.8666 254.667C97.6999 254.63 97.5666 254.449 97.5999 254.267C98.0332 251.325 97.3332 245.622 97.3332 245.586V245.513V245.441C97.6332 244.169 98.2666 240.573 97.3999 239.484C96.6333 238.503 89.2332 238.249 84.7332 238.321C84.5666 238.321 84.3999 238.176 84.3999 237.958C84.3999 237.74 84.5332 237.595 84.7332 237.595C86.7332 237.558 96.6999 237.486 97.8999 239.011C99.0999 240.537 98.1666 244.787 97.9999 245.55C98.0666 246.24 98.6666 251.47 98.2333 254.376C98.2333 254.558 98.0666 254.667 97.9332 254.667Z" fill="#472938"/>
<path d="M97.6665 245.876C97.6665 245.876 97.6332 245.876 97.6665 245.876L86.9332 245.332C86.7332 245.332 86.5999 245.15 86.5999 244.968C86.5999 244.75 86.7332 244.605 86.9332 244.605L97.6665 245.15C97.8665 245.15 97.9999 245.332 97.9999 245.513C97.9999 245.731 97.8332 245.876 97.6665 245.876Z" fill="#472938"/>
<path d="M97.8334 260.951H87.2667C87.0667 260.951 86.9333 260.805 86.9333 260.587C86.9333 260.369 87.0667 260.224 87.2667 260.224H97.8334C98.0334 260.224 98.1667 260.369 98.1667 260.587C98.1667 260.805 98.0334 260.951 97.8334 260.951Z" fill="#472938"/>
<path d="M98.0331 253.032H85.8997C85.6997 253.032 85.5664 252.887 85.5664 252.669C85.5664 252.451 85.6997 252.306 85.8997 252.306H98.0331C98.2331 252.306 98.3664 252.451 98.3664 252.669C98.3664 252.887 98.2331 253.032 98.0331 253.032Z" fill="#472938"/>
<path d="M278.967 192.009L299.167 191.173C300.033 191.137 300.767 191.864 300.8 192.808L302.367 238.212C302.4 239.157 301.733 239.956 300.867 239.992L280.667 240.827C279.8 240.864 279.067 240.137 279.033 239.193L277.467 193.789C277.433 192.808 278.1 192.045 278.967 192.009Z" fill="#3B2645"/>
<path d="M280.6 239.338C280.467 239.338 280.367 239.229 280.367 239.084L278.8 193.68C278.8 193.607 278.834 193.534 278.867 193.498C278.9 193.462 278.967 193.425 279.034 193.425L299.234 192.59C299.367 192.59 299.467 192.699 299.467 192.844L301.034 238.249C301.034 238.394 300.934 238.503 300.8 238.503L280.6 239.338Z" fill="#FEF9EF"/>
<path d="M216.333 186.379C216.333 186.379 237.533 188.703 241.467 207.446C245.4 226.189 252.667 270.722 252.667 270.722C252.667 270.722 268.133 243.733 269.367 239.447C270.6 235.161 274.6 220.668 274.467 215.728C274.333 210.788 278.767 214.311 278.767 220.196L279.433 239.665C279.467 240.319 279.967 240.827 280.567 240.791H280.6L301.067 239.12C301.767 239.084 302.267 238.43 302.233 237.667V237.413C302.233 237.413 300.767 234.108 301.2 232.582C301.633 231.056 305.133 230.911 305.533 231.274C305.933 231.638 308.1 236.178 308.033 237.413C307.967 238.648 305.433 242.498 303.767 243.08C302.1 243.661 285.5 248.02 282.1 253.613C278.7 259.207 263.833 308.207 251.767 311.985C239.7 315.763 227.933 280.129 225.167 269.705C222.4 259.28 216.333 186.379 216.333 186.379Z" fill="#FFEDE5"/>
<path d="M221.667 244.169C222.967 256.192 224.267 266.29 225.167 269.668C226.467 274.536 229.733 284.96 234.1 294.259L235.433 225.79L221.667 244.169Z" fill="#E0855C"/>
<path d="M301.667 218.343C301.667 218.343 308.9 222.375 308.767 224.082C308.634 225.79 307.267 228.841 305.867 228.695C304.467 228.55 301.834 227.025 301.1 225.245C300.367 223.465 300 217.762 301.667 218.343Z" fill="#FFEDE5"/>
<path d="M302.033 224.264C302.033 224.264 309.267 228.296 309.133 230.003C309 231.71 307.633 234.762 306.233 234.616C304.833 234.471 302.2 232.945 301.467 231.165C300.733 229.386 300.367 223.683 302.033 224.264Z" fill="#FFEDE5"/>
<path d="M302.033 211.151C302.033 211.151 309.267 215.183 309.133 216.89C309 218.598 307.633 221.649 306.233 221.503C304.833 221.358 302.2 219.833 301.467 218.053C300.733 216.273 300.367 210.534 302.033 211.151Z" fill="#FFEDE5"/>
<path d="M246.133 285.142C246.067 285.142 246.033 285.142 245.967 285.106C245.8 285.033 245.733 284.779 245.833 284.633L252.367 270.576C252.433 270.395 252.667 270.322 252.8 270.431C252.967 270.504 253.033 270.758 252.933 270.903L246.4 284.96C246.367 285.069 246.267 285.142 246.133 285.142Z" fill="#472938"/>
<path d="M152.5 305.084C152.533 316.889 147.233 329.529 147.233 329.529C147.233 329.529 183.933 351.977 230.533 332.653C230.533 332.653 224.833 316.671 225.566 299.962C187.9 292.334 152.5 305.084 152.5 305.084Z" fill="#FFEDE5"/>
<path d="M118.533 209.698C115.8 214.166 126.333 236.396 136.4 258.88C145.567 236.541 140.2 209.408 137.1 197.748C130 200.726 121.3 205.122 118.533 209.698Z" fill="#FFEDE5"/>
<path d="M225.567 299.998C225.633 298.255 225.8 296.511 226.033 294.768C226.167 293.714 226.333 292.588 226.5 291.39C196.6 282.49 161 292.661 150.967 295.894C151.933 299.49 152.5 302.614 152.5 305.084C152.5 305.084 187.9 292.334 225.567 299.998Z" fill="#FEF9EF"/>
<path d="M136.4 260.079C136.267 260.079 136.167 260.006 136.1 259.861L128.667 242.426C128.6 242.244 128.667 242.026 128.833 241.954C129 241.881 129.2 241.954 129.267 242.135L136.7 259.57C136.767 259.752 136.7 259.97 136.533 260.043C136.5 260.079 136.433 260.079 136.4 260.079Z" fill="#472938"/>
<path d="M193.4 337.048C193.915 337.048 194.333 336.593 194.333 336.031C194.333 335.47 193.915 335.014 193.4 335.014C192.884 335.014 192.467 335.47 192.467 336.031C192.467 336.593 192.884 337.048 193.4 337.048Z" fill="#E0855C"/>
<path d="M233.833 227.933C233.833 227.678 233.833 227.424 233.833 227.206C233.833 227.097 233.833 226.952 233.833 226.843C233.833 226.552 233.833 226.298 233.8 226.008C233.8 225.935 233.8 225.862 233.8 225.753C233.8 225.39 233.766 225.063 233.766 224.736V224.518C233.766 224.264 233.733 223.973 233.733 223.719C233.733 223.61 233.733 223.501 233.7 223.392C233.7 223.174 233.666 222.956 233.666 222.775L233.633 222.412C233.633 222.23 233.6 222.012 233.566 221.83C233.566 221.721 233.533 221.612 233.533 221.467C233.5 221.249 233.5 221.068 233.467 220.85C233.467 220.741 233.433 220.668 233.433 220.559C233.4 220.268 233.367 219.978 233.3 219.687C230.7 202.47 216.3 186.342 216.3 186.342C216.3 186.342 221.9 210.57 223.7 213.403C230.266 223.792 233.933 230.039 233.467 238.321C233.5 237.885 233.533 237.486 233.566 237.05C233.566 236.941 233.566 236.832 233.566 236.723C233.6 236.396 233.6 236.069 233.633 235.779C233.633 235.67 233.633 235.524 233.666 235.415C233.666 235.125 233.7 234.834 233.7 234.507L233.733 234.144C233.733 233.817 233.766 233.527 233.766 233.236C233.766 233.127 233.766 233.054 233.766 232.945C233.8 232.146 233.833 231.347 233.833 230.548C233.833 230.439 233.833 230.366 233.833 230.257C233.833 229.967 233.833 229.676 233.833 229.386V229.022C233.833 228.768 233.833 228.514 233.833 228.26V227.933Z" fill="#FFEDE5"/>
<path d="M223.7 213.44C221.9 210.607 216.333 186.379 216.333 186.379H212.1L147.233 193.934C147.233 193.934 142.667 195.387 137.1 197.712C140.167 209.372 145.567 236.541 136.4 258.844C142.433 272.356 148.267 285.941 150.933 295.894C160.967 292.625 196.567 282.491 226.467 291.39C228.433 277.66 232.233 255.793 233.467 238.358C233.933 230.076 230.267 223.828 223.7 213.44Z" fill="#AB8DA8"/>
<path d="M158.1 276.715C156.5 276.715 154.833 276.497 153.067 276.025C152.9 275.989 152.767 275.771 152.833 275.589C152.867 275.407 153.067 275.262 153.233 275.335C159.567 277.078 164.7 275.08 170.1 273.01C175.233 271.012 180.533 268.978 187.333 269.814C201.067 271.484 223.433 267.453 223.667 267.416C223.867 267.38 224.033 267.525 224.067 267.707C224.1 267.888 223.967 268.106 223.8 268.143C223.567 268.179 201.1 272.247 187.3 270.576C180.667 269.777 175.433 271.775 170.367 273.736C166.3 275.226 162.433 276.715 158.1 276.715Z" fill="#472938"/>
<path d="M209.367 89.5404C209.367 89.5404 226.767 91.4292 221.533 116.638C216.3 141.846 221.467 140.72 226 154.051C230.533 167.382 206.833 158.555 206.833 158.555C206.833 158.555 218.9 178.242 154.767 169.743C101.867 162.732 137.167 132.693 137.167 132.693C137.167 132.693 121.267 134.981 140.3 116.674C153.7 103.779 160.833 56.3771 209.367 89.5404Z" fill="#3B2645"/>
<path d="M197.833 159.281C197.833 159.281 192.467 179.804 199.833 183.618C205.5 186.56 212.1 186.379 212.1 186.379C212.1 186.379 209.833 240.791 181.833 241.372C153.833 241.954 147.233 193.934 147.233 193.934C147.233 193.934 158.633 189.575 162.033 181.039C165.433 172.503 165.6 160.553 165.6 160.553L197.833 159.281Z" fill="#FFEDE5"/>
<path d="M211.285 143.766C214.138 138.38 214.073 132.518 211.14 130.673C208.206 128.827 203.515 131.697 200.662 137.082C197.808 142.468 197.873 148.33 200.807 150.175C203.74 152.021 208.431 149.151 211.285 143.766Z" fill="#E0855C"/>
<path d="M204.3 144.171C204.2 144.171 204.133 144.135 204.067 144.062C203.933 143.917 203.933 143.699 204.067 143.553L209.1 138.395C209.233 138.25 209.433 138.25 209.567 138.395C209.7 138.541 209.7 138.759 209.567 138.904L204.533 144.062C204.467 144.171 204.4 144.171 204.3 144.171Z" fill="#472938"/>
<path d="M158.838 146.082C162.134 145.233 163.741 139.638 162.427 133.587C161.114 127.535 157.377 123.318 154.08 124.168C150.784 125.017 149.177 130.612 150.491 136.664C151.805 142.715 155.542 146.932 158.838 146.082Z" fill="#FFEDE5"/>
<path d="M196.167 176.789C195.167 169.452 197.833 159.245 197.833 159.245L165.567 160.553C165.567 160.553 165.533 163.204 165.133 166.909C165.133 166.946 181.233 188.195 196.167 176.789Z" fill="#E0855C"/>
<path d="M157.967 138.65C157.867 138.65 157.767 138.577 157.7 138.468L154.5 133.129C154.4 132.947 154.433 132.729 154.6 132.62C154.767 132.511 154.967 132.547 155.067 132.729L158.267 138.069C158.367 138.25 158.333 138.468 158.167 138.577C158.1 138.65 158.033 138.65 157.967 138.65Z" fill="#472938"/>
<path d="M160.1 100.328C160.1 100.328 148.633 167.781 175.567 174.791C202.5 181.802 212.1 118.89 211.4 105.813C210.7 92.7368 164.1 88.7776 160.1 100.328Z" fill="#FFEDE5"/>
<path d="M195.934 131.167C196.8 131.349 197.367 132.257 197.234 133.201L197.067 134.255C196.9 135.199 196.067 135.816 195.2 135.671C194.334 135.49 193.767 134.581 193.9 133.637L194.067 132.584C194.234 131.639 195.067 130.985 195.934 131.167Z" fill="#472938"/>
<path d="M170.833 128.116C171.733 128.116 172.433 128.879 172.433 129.859V130.913C172.433 131.857 171.733 132.656 170.833 132.656C169.967 132.656 169.233 131.894 169.233 130.913V129.859C169.233 128.879 169.933 128.116 170.833 128.116Z" fill="#472938"/>
<path d="M201.8 129.351C201.8 129.351 200.6 127.389 197.133 126.736C193.667 126.082 192.567 126.3 192.533 125.101C192.5 123.902 200.267 122.05 201.8 129.351Z" fill="#472938"/>
<path d="M165.8 124.375C165.8 124.375 167.533 122.958 171 123.575C174.467 124.229 175.433 124.81 175.833 123.684C176.233 122.558 169.467 118.018 165.8 124.375Z" fill="#472938"/>
<path d="M172.4 150.092L186.8 151.871C186.8 151.871 184.567 162.478 178.2 161.243C171.867 160.044 172.4 150.092 172.4 150.092Z" fill="white"/>
<path d="M181.933 147.476C180.933 147.476 179.833 147.186 178.833 146.677C178.667 146.605 178.6 146.387 178.667 146.205C178.733 146.023 178.933 145.951 179.1 146.023C180.567 146.786 182.2 146.968 183.3 146.496C183.767 146.314 184.067 146.023 184.2 145.696C184.633 144.57 184.467 141.083 184.267 137.051L184.2 135.635C183.833 128.189 187.933 126.772 188.1 126.699C188.267 126.627 188.467 126.736 188.5 126.954C188.567 127.135 188.467 127.353 188.267 127.389C188.1 127.426 184.5 128.733 184.833 135.599L184.9 137.015C185.1 141.301 185.3 144.716 184.767 145.987C184.567 146.496 184.133 146.931 183.5 147.186C183.1 147.404 182.533 147.476 181.933 147.476Z" fill="#472938"/>
<path d="M206.833 137.851C206.833 137.851 209 119.653 201.8 109.7C201.8 109.7 195.7 122.268 185.7 117.909C185.7 117.909 171.967 130.876 157.967 127.099C143.967 123.321 148.933 87.6516 169.233 86.126C189.533 84.6004 230.833 93.4997 206.833 137.851Z" fill="#3B2645"/>
<defs>
<linearGradient id="paint0_linear_698_3703" x1="-2.01274e-05" y1="151.5" x2="172.331" y2="-34.6369" gradientUnits="userSpaceOnUse">
<stop stop-color="#92A3FD"/>
<stop offset="1" stop-color="#9DCEFF"/>
</linearGradient>
</defs>
</svg>
