<svg width="375" height="442" viewBox="0 0 375 442" fill="none" xmlns="http://www.w3.org/2000/svg">
<path d="M0 273.363C0 273.363 59.4333 140.138 122.033 140.138C184.633 140.138 228.467 278.347 291.067 278.347C353.667 278.347 346.733 206.277 375 206.277V-0.369457H0V273.363Z" fill="url(#paint0_linear_698_3796)"/>
<path d="M164.567 208.787L147.367 214.26C147.367 214.26 142.133 234.363 143.767 237.946C145.4 241.529 154.6 244.249 158.967 242.092C163.333 239.936 178.133 225.838 178.133 225.838L164.567 208.787Z" fill="#FFEDE5"/>
<path d="M180.333 189.38C180.333 189.38 169.333 201.787 164.566 208.787L176.833 227.861L189.666 216.383C189.666 216.383 187.533 184.637 180.333 189.38Z" fill="#543753"/>
<path d="M162.6 209.417V228.525L168.133 214.327L164.567 208.787L162.6 209.417Z" fill="#E0855C"/>
<path d="M161.767 198.337C163.267 198.702 163.733 197.674 164.967 199.631C166.2 201.588 168.8 209.251 168.1 210.412C167.4 211.573 159.633 219.037 159.067 219.037C158.5 219.037 157.067 216.947 157.367 216.217C157.367 216.217 155.533 217.312 154.333 217.113C154.333 217.113 151.667 218.506 150.6 218.241C149.533 217.976 143.3 208.82 144.767 206.398C146.233 203.977 147.167 205.237 148.033 204.275C148.9 203.313 150.367 201.721 152.133 201.887C153.9 202.053 154.7 199.332 157.267 199.73C159.833 200.128 158.433 197.508 161.767 198.337Z" fill="#FFEDE5"/>
<path d="M157.333 216.549C157.2 216.549 157.1 216.483 157.033 216.383C156.933 216.217 157 216.018 157.167 215.952C157.2 215.952 160.2 214.36 161 213.199L161.067 213.132C161.1 213.132 162.8 211.606 163.367 210.445L160.467 203.91C160.4 203.744 160.467 203.545 160.633 203.479C160.8 203.413 161 203.479 161.067 203.645L164.067 210.445L164 210.578C163.5 211.839 161.767 213.398 161.5 213.63C160.567 214.924 157.567 216.483 157.433 216.549C157.433 216.516 157.4 216.549 157.333 216.549Z" fill="#472938"/>
<path d="M154.3 217.445C154.166 217.445 154.066 217.378 154 217.246L150.3 209.749C150.233 209.583 150.3 209.384 150.466 209.317C150.633 209.251 150.833 209.317 150.9 209.483L154.6 216.98C154.666 217.146 154.6 217.345 154.433 217.412C154.4 217.445 154.366 217.445 154.3 217.445Z" fill="#472938"/>
<path d="M159.3 215.388C159.166 215.388 159.066 215.322 159 215.189L155.533 207.758C155.466 207.592 155.533 207.393 155.7 207.327C155.866 207.261 156.066 207.327 156.133 207.493L159.6 214.924C159.666 215.09 159.6 215.289 159.433 215.355C159.4 215.388 159.333 215.388 159.3 215.388Z" fill="#472938"/>
<path d="M159.033 219.369C158.5 219.369 157.9 218.54 157.667 218.208C157.5 217.976 157.133 217.379 157 216.781C156.367 217.08 155.267 217.544 154.367 217.478C153.833 217.743 151.567 218.838 150.5 218.573C149.9 218.44 148.8 216.98 148.2 216.118C148.1 215.952 148.133 215.753 148.267 215.654C148.4 215.554 148.633 215.587 148.733 215.72C149.767 217.213 150.467 217.843 150.633 217.909C151.333 218.075 153.133 217.312 154.133 216.815L154.233 216.781H154.333C155.433 216.947 157.133 215.919 157.167 215.919L158.033 215.421L157.667 216.35C157.633 216.45 157.633 216.781 157.967 217.412C158.367 218.141 158.833 218.606 159.033 218.705C159.867 218.241 165.3 213.132 167.233 211.076C165.433 211.507 163.7 210.744 163.633 210.711C163.467 210.644 163.4 210.445 163.467 210.279C163.533 210.114 163.733 210.047 163.9 210.114C163.933 210.114 166.1 211.076 167.933 210.114C168.167 209.981 168.333 210.047 168.4 210.147C168.5 210.213 168.567 210.379 168.5 210.545C168.267 211.142 159.833 219.369 159.033 219.369Z" fill="#472938"/>
<path d="M218.033 169.443L234.733 179.893V201.555C234.733 201.555 217.366 237.515 218.033 250.485L178.266 257.883C178.266 257.883 168.733 219.8 180.333 189.347L198.066 176.94L218.033 169.443Z" fill="#AB8DA8"/>
<path d="M174.6 227.297C174.433 227.297 174.267 227.165 174.267 226.966C174.133 217.777 174.867 209.218 176.5 201.455C176.533 201.29 176.7 201.157 176.9 201.19C177.067 201.223 177.2 201.389 177.167 201.588C175.567 209.284 174.8 217.81 174.967 226.932C174.933 227.131 174.8 227.297 174.6 227.297Z" fill="#472938"/>
<path d="M234.733 201.588L221.7 199.631L229 214.327L234.733 201.588Z" fill="#543753"/>
<path d="M213.7 156.141L218.033 169.443C213.4 171.235 209.233 174.021 205.833 177.637C200.133 183.675 197.933 189.38 194.5 189.38C191.067 189.38 198.1 176.974 198.1 176.974L197.2 165.363L213.7 156.141Z" fill="#FFEDE5"/>
<path d="M197.633 171.268C197.633 171.268 205.267 170.14 209.167 159.226L197.167 165.363L197.633 171.268Z" fill="#E0855C"/>
<path d="M191.967 128.972C191.967 128.972 184.6 164.733 188.433 167.188C192.267 169.642 207.4 167.519 213.033 157.567C218.667 147.615 211.6 128.972 191.967 128.972Z" fill="#FFEDE5"/>
<path d="M189.6 141.677C189.6 141.677 182.667 150.601 183.367 151.463C184.067 152.326 187.867 153.553 187.867 153.553L189.6 141.677Z" fill="#FFEDE5"/>
<path d="M210.4 152.16C210.4 152.16 206.933 150.435 209.167 142.905C209.167 142.905 204.667 134.976 201.733 133.683C198.8 132.389 191.333 131.991 191.333 131.991C191.333 131.991 189.833 121.541 192.333 120.447C194.833 119.352 217.967 119.982 222.333 128.11C223.8 130.863 222.867 132.522 222.867 132.522C222.867 132.522 225.333 135.773 224.9 138.559C224.467 141.346 217.667 151.663 217.667 151.663L210.4 152.16Z" fill="#3B2645"/>
<path d="M217.318 154.879C219.636 152.574 220.29 149.486 218.78 147.983C217.27 146.48 214.167 147.132 211.85 149.438C209.533 151.743 208.879 154.831 210.389 156.334C211.899 157.837 215.001 157.185 217.318 154.879Z" fill="#FFEDE5"/>
<path d="M191.366 159.292C189.8 159.292 188.4 158.861 188.3 158.828C188.133 158.762 188.033 158.596 188.1 158.397C188.166 158.231 188.333 158.131 188.533 158.198C188.566 158.198 193.1 159.657 194.666 157.269C194.766 157.103 194.966 157.07 195.133 157.169C195.3 157.269 195.333 157.468 195.233 157.634C194.333 158.927 192.8 159.292 191.366 159.292Z" fill="#472938"/>
<path d="M212.167 153.686C212.067 153.686 211.933 153.62 211.9 153.52C211.8 153.354 211.833 153.155 212 153.056L214.7 151.364C214.867 151.264 215.067 151.298 215.167 151.463C215.267 151.629 215.233 151.828 215.067 151.928L212.367 153.62C212.3 153.653 212.233 153.686 212.167 153.686Z" fill="#472938"/>
<path d="M194.2 141.711C194.9 141.876 195.333 142.573 195.167 143.237L194.967 144.132C194.8 144.829 194.1 145.26 193.433 145.094C192.733 144.928 192.3 144.232 192.467 143.568L192.667 142.673C192.833 141.976 193.5 141.545 194.2 141.711Z" fill="#3B2645"/>
<path d="M192.8 138.227C192.8 138.227 197.2 137.929 198.333 141.512C198.333 141.512 198.2 137.763 195.433 137.199C192.667 136.635 191.767 138.062 192.8 138.227Z" fill="#3B2645"/>
<path d="M223.967 173.159C209 170.638 218.933 202.053 218.933 202.053L241.333 208.787L249.633 183.409C236.6 177.703 223.967 173.159 223.967 173.159Z" fill="#AB8DA8"/>
<path d="M244.833 247.4C244.833 247.4 236.933 250.154 236.167 251.381C235.4 252.608 236.133 256.954 236.133 256.954C235.3 258.281 234.633 259.674 234.167 261.167C233.5 263.39 235.167 262.726 237.133 264.982C239.1 267.238 240.7 266.674 241.833 267.702C242.967 268.73 245.267 268.399 246.167 268.83C247.067 269.261 248.767 270.721 249.8 270.655C250.833 270.588 253.267 267.072 255.267 262.66C257.267 258.248 256.9 254.665 257.8 249.357C258.7 244.05 279.733 209.915 277.267 200.659C276.033 196.048 262.633 189.148 249.6 183.409L241.3 208.787L253.167 212.369L244.833 247.4Z" fill="#FFEDE5"/>
<path d="M256.733 213.63C256.7 213.63 256.667 213.63 256.633 213.63L253.067 212.668C252.9 212.635 252.767 212.436 252.833 212.27C252.867 212.104 253.067 212.004 253.233 212.038L256.8 213C256.967 213.033 257.1 213.232 257.033 213.398C257.033 213.53 256.9 213.63 256.733 213.63Z" fill="#472938"/>
<path d="M283.833 332.489L296.8 326.02C296.8 326.02 296.5 323.499 299.1 320.646C301.7 317.794 299.767 311.192 297.333 310.131C294.9 309.069 293.7 309.799 291.6 306.382L272.833 314.476L283.833 332.489Z" fill="#FFEDE5"/>
<path d="M297.3 310.131C299.733 311.192 301.633 317.794 299.067 320.646C296.5 323.499 296.767 326.021 296.767 326.021C307.867 327.513 318.3 343.702 320.267 345.526C322.233 347.351 330.2 346.057 330.433 344.697C330.667 343.337 313.367 297.923 311.767 296.928C310.167 295.932 291.567 306.382 291.567 306.382C293.667 309.799 294.867 309.069 297.3 310.131Z" fill="#AB8DA8"/>
<path d="M330.433 344.697C330.633 343.337 313.367 297.923 311.767 296.928C311.367 296.662 309.9 297.127 307.967 297.956C312.567 307.045 324.3 338.361 327.2 346.123C328.933 345.792 330.333 345.261 330.433 344.697Z" fill="#E5E5E5"/>
<path d="M183.867 284.521C183.867 284.521 213.6 362.146 226.133 363.174C238.667 364.203 289.533 330.2 289.533 330.2L280.067 311.325L237.1 325.423L226.4 276.692L183.867 284.521Z" fill="#3B2645"/>
<g opacity="0.5">
<path opacity="0.5" d="M226.4 276.725L183.867 284.521C183.867 284.521 191.5 304.425 200.633 324.196L229.933 292.98L226.4 276.725Z" fill="#3B2645"/>
</g>
<path d="M105.733 396.48L100 409.716C100 409.716 101.867 411.474 101.733 415.289C101.6 419.104 107.333 422.952 109.9 422.189C112.467 421.426 112.9 420.099 116.733 421.393L125.867 403.148L105.733 396.48Z" fill="#FFEDE5"/>
<path d="M103.733 401.091C103.733 401.091 111.6 409.285 121.9 411.01L125.833 403.148L105.733 396.447L103.733 401.091Z" fill="#E0855C"/>
<path d="M218.033 250.518C218.033 250.518 235.433 270.588 226.367 286.511C217.3 302.434 163.267 331.693 159.6 340.683C155.933 349.673 153.867 360.056 146.367 372.529C138.867 385.002 126.9 406.996 126.9 406.996C126.9 406.996 108.8 406.299 102.9 398.504C102.9 398.504 132.1 324.959 139.067 315.438C146.033 305.918 178.9 265.579 178.9 265.579L178.233 257.916L218.033 250.518Z" fill="#3B2645"/>
<path d="M118.667 404.375C118.633 404.375 118.633 404.375 118.6 404.375C118.533 404.342 118.467 404.243 118.533 404.143C118.867 403.447 151.033 335.243 157.467 327.281C159.833 324.329 166.8 317.395 174.833 309.368C188.6 295.634 205.7 278.55 208 273.308C211.6 265.148 209.2 253.67 209.167 253.537C209.133 253.438 209.2 253.371 209.3 253.338C209.4 253.305 209.467 253.371 209.5 253.471C209.533 253.57 211.933 265.181 208.3 273.441C205.967 278.716 188.833 295.833 175.067 309.6C167.033 317.628 160.1 324.528 157.733 327.48C151.333 335.408 119.167 403.579 118.867 404.276C118.8 404.342 118.733 404.375 118.667 404.375Z" fill="white"/>
<path d="M114.1 403.347C114.067 403.347 114.067 403.347 114.033 403.347C113.967 403.314 113.9 403.214 113.967 403.115C114.3 402.418 147.667 332.157 151.533 326.253C153.5 323.234 165.233 310.894 176.567 298.984C187.767 287.208 199.367 275 201.6 271.749C206.067 265.247 205.133 254.698 205.133 254.599C205.133 254.499 205.2 254.433 205.3 254.433C205.4 254.433 205.467 254.499 205.467 254.599C205.467 254.698 206.433 265.38 201.867 271.981C199.6 275.266 188 287.473 176.8 299.283C165.467 311.192 153.767 323.532 151.8 326.518C147.967 332.423 114.567 402.65 114.233 403.347C114.233 403.314 114.167 403.347 114.1 403.347Z" fill="white"/>
<path d="M109.867 422.223C107.333 422.952 101.567 419.137 101.7 415.323C101.833 411.508 99.9666 409.749 99.9666 409.749C90.4999 415.721 72.0666 410.015 69.3666 409.882C66.6666 409.749 61.3999 415.853 62.1333 417.014C62.8666 418.175 105.433 441.861 107.333 441.629C109.233 441.397 116.667 421.46 116.667 421.46C112.867 420.133 112.433 421.493 109.867 422.223Z" fill="#AB8DA8"/>
<path d="M62.1665 417.014C62.8665 418.175 105.467 441.861 107.367 441.629C107.833 441.562 108.667 440.302 109.6 438.411C100.2 434.397 70.9332 417.943 63.7332 413.863C62.5999 415.19 61.8665 416.517 62.1665 417.014Z" fill="#E5E5E5"/>
<g opacity="0.5">
<path opacity="0.5" d="M178.9 265.579C178.9 265.579 198.667 263.124 198.467 263.191C198.267 263.257 178.633 262.328 178.633 262.328L178.9 265.579Z" fill="#3B2645"/>
</g>
<defs>
<linearGradient id="paint0_linear_698_3796" x1="274" y1="-163" x2="500.899" y2="38.8594" gradientUnits="userSpaceOnUse">
<stop stop-color="#9DCEFF"/>
<stop offset="1" stop-color="#92A3FD"/>
</linearGradient>
</defs>
</svg>
