<svg width="375" height="437" viewBox="0 0 375 437" fill="none" xmlns="http://www.w3.org/2000/svg">
<path d="M0 206.278C0 206.278 22.4 209.841 45.1 292.701C67.8 375.562 130.8 436.74 212.967 436.74C295.133 436.74 346 277.722 375 200.5V-5.25968H0V206.278Z" fill="url(#paint0_linear_698_3881)"/>
<path d="M214.367 123.903L219.233 163.172L173.967 165.58V136.518L214.367 123.903Z" fill="#FFEDE5"/>
<path d="M173.967 155.678C173.967 155.678 202.267 169.954 210.267 125.192L173.967 136.518V155.678Z" fill="#E0855C"/>
<path d="M166.918 117.173C170.179 116.172 171.379 110.492 169.598 104.485C167.818 98.4786 163.731 94.42 160.47 95.4203C157.21 96.4206 156.01 102.101 157.79 108.108C159.571 114.114 163.657 118.173 166.918 117.173Z" fill="#E0855C"/>
<path d="M161.866 89.3137C161.866 89.3137 162.733 151.235 189.166 153.202C215.6 155.169 217.7 105.252 217.866 89.3137C218.033 73.3755 201.333 68.7975 186.4 68.967C171.466 69.1366 162.566 76.9361 161.866 89.3137Z" fill="#FFEDE5"/>
<path d="M216.733 103.149C216.733 103.149 210 93.6543 210.233 82.2263C210.233 82.2263 187.367 93.383 172.2 84.5661C172.2 84.5661 163.133 90.2971 162.733 102.369L159.633 95.7907C159.633 95.7907 157.967 82.0906 158.9 78.8691C159.467 76.9361 160.8 75.3084 162.567 74.4267C162.567 74.4267 154.867 57.0982 173.667 50.2142C173.667 50.2142 173.733 54.3853 181.233 53.8088C188.733 53.2323 223.466 51.0959 220.7 69.9505C220.666 69.9166 228.4 82.2263 216.733 103.149Z" fill="#3B2645"/>
<path d="M224.574 104.82C226.209 98.7705 224.873 93.1216 221.589 92.2027C218.305 91.2838 214.317 95.443 212.682 101.492C211.046 107.542 212.383 113.191 215.666 114.11C218.95 115.029 222.938 110.869 224.574 104.82Z" fill="#FFEDE5"/>
<path d="M216.733 107.32C216.7 107.32 216.633 107.32 216.6 107.287C216.433 107.219 216.367 107.015 216.433 106.846L219.367 100.674C219.433 100.504 219.633 100.437 219.8 100.504C219.967 100.572 220.033 100.776 219.967 100.945L217.033 107.117C216.967 107.253 216.867 107.32 216.733 107.32Z" fill="#472938"/>
<path d="M188.133 123.971C186.5 123.971 183.333 123.089 182.6 121.733C182.1 120.783 183.1 115.459 185.033 106.54C185.367 104.947 185.667 103.692 185.767 103.082C186.167 100.843 184.933 100.233 184.867 100.233C184.7 100.165 184.633 99.9617 184.7 99.7922C184.767 99.6226 184.967 99.5548 185.133 99.6226C185.2 99.6565 186.9 100.437 186.4 103.217C186.3 103.828 186.033 105.082 185.667 106.71C184.767 110.847 182.667 120.546 183.167 121.427C183.767 122.546 187.5 123.564 188.6 123.259C189.7 122.953 191.867 121.326 191.9 121.326C192.033 121.224 192.267 121.258 192.367 121.393C192.467 121.529 192.433 121.767 192.3 121.868C192.2 121.936 190 123.564 188.8 123.903C188.6 123.937 188.4 123.971 188.133 123.971Z" fill="#472938"/>
<path d="M188.8 133.941C185.8 133.941 183.467 133.195 183.433 133.195C183.267 133.127 183.167 132.957 183.233 132.754C183.3 132.584 183.467 132.482 183.667 132.55C183.767 132.584 195.1 136.145 199.367 127.158C199.433 126.989 199.633 126.921 199.8 126.989C199.967 127.057 200.033 127.26 199.967 127.43C197.4 132.754 192.567 133.941 188.8 133.941Z" fill="#472938"/>
<path d="M201.167 101.216C202.233 101.216 203.1 102.098 203.1 103.183V104.641C203.1 105.727 202.233 106.608 201.167 106.608C200.1 106.608 199.233 105.727 199.233 104.641V103.183C199.233 102.098 200.066 101.216 201.167 101.216Z" fill="#472938"/>
<path d="M175.133 102.573C176.2 102.471 177.133 103.251 177.233 104.336L177.367 105.794C177.467 106.88 176.7 107.829 175.633 107.931C174.567 108.033 173.633 107.253 173.533 106.167L173.4 104.709C173.3 103.624 174.067 102.675 175.133 102.573Z" fill="#472938"/>
<path d="M207.8 94.9429C205.467 93.5865 202.7 93.383 200.2 94.3665C196.033 96.062 194.8 94.909 194.533 94.3326C194.267 93.7561 197.067 90.9414 202.667 91.1788C206.5 91.3145 207.8 94.9429 207.8 94.9429Z" fill="#472938"/>
<path d="M167 98.0627C169.067 96.3333 171.8 95.689 174.4 96.2315C178.8 97.2149 179.8 95.8924 179.967 95.282C180.133 94.6716 176.933 92.3657 171.433 93.4848C167.7 94.2986 167 98.0627 167 98.0627Z" fill="#472938"/>
<path d="M271.767 183.078L249.933 174.803C192.967 192.946 168.333 178.771 158.8 168.971C158.8 168.971 124.233 173.922 119.633 177.788C115.033 181.654 128.167 299.698 128.833 325.538C129.267 342.019 127.233 365.96 125.7 381.084C150.9 397.938 180.433 407.603 212.967 407.603C232.733 407.603 252.4 400.855 270.833 389.562C267.733 363.247 261.267 308.277 261 300.376C260.667 289.965 271.767 183.078 271.767 183.078Z" fill="#AB8DA8"/>
<path d="M173.966 165.58L158.8 168.971C168.333 178.771 192.966 192.946 249.967 174.837L219.233 163.172L173.966 165.58Z" fill="#FFEDE5"/>
<path d="M262.4 279.25C262.4 279.25 247.633 207.053 238.133 178.229C236.8 174.159 235.566 170.972 234.5 168.971L221.733 164.121C221.733 164.121 223.566 171.107 225.966 180.975C230.433 199.186 236.9 227.162 237.7 238.963H169.333V166.597L157.666 168.971C157.666 168.971 157.666 169.073 157.633 169.242C156.7 174.939 139.6 275.384 126.9 297.731C126.9 297.731 128.667 319.943 128.8 325.538C129.233 342.019 127.2 365.96 125.667 381.084C150.866 397.938 180.4 407.603 212.933 407.603C232.7 407.603 252.366 400.855 270.8 389.562C267.7 363.247 261.233 308.277 260.966 300.376C260.933 297.901 261.5 289.931 262.4 279.25Z" fill="#3B2645"/>
<path d="M126.433 291.864L137.7 242.422L123.333 256.156L126.433 291.864Z" fill="#543753"/>
<path d="M203.567 348.225C194.533 348.225 186.9 344.901 180.867 338.39C171.067 327.776 167.2 310.346 165.7 297.595C164.067 283.794 164.733 272.366 164.767 272.264L164.8 271.959H242.367L242.4 272.264C242.4 272.366 243.1 283.828 241.467 297.595C239.967 310.346 236.1 327.776 226.3 338.39C220.233 344.901 212.6 348.225 203.567 348.225ZM165.4 272.603C165.3 274.536 164.9 285.082 166.367 297.528C167.867 310.176 171.7 327.437 181.367 337.916C187.267 344.291 194.733 347.546 203.567 347.546C212.4 347.546 219.867 344.291 225.767 337.916C235.433 327.437 239.267 310.176 240.767 297.528C242.233 285.082 241.833 274.536 241.733 272.603H165.4V272.603Z" fill="white"/>
<path d="M119.6 177.788C119.6 177.788 106.366 188.673 75.8665 251.816L117.6 288.304L141.6 243.846C141.6 243.846 131.266 175.923 119.6 177.788Z" fill="#AB8DA8"/>
<path d="M126.1 376.947C126.1 376.947 144.467 385.595 147.333 384.408C150.2 383.221 146.666 358.669 145.766 358.398C144.866 358.127 128.9 345.681 125.7 346.461C123.467 347.004 121.4 354.295 121.4 354.295L87.2332 327.878L112.933 284.235L75.8665 251.816C75.8665 251.816 64.3332 272.433 55.0999 291.729C70.6332 329.234 94.9665 360.5 125.7 381.084L126.1 376.947Z" fill="#FFEDE5"/>
<path d="M75.8665 251.816L112.933 284.234L109.3 290.406L75.8665 251.816Z" fill="#E0855C"/>
<path d="M271.766 183.078C277.7 185.18 318.2 237.912 318.2 237.912L273.866 272.23C273.866 272.23 257.433 249.238 255.866 237.912C254.3 226.586 259.766 178.839 271.766 183.078Z" fill="#AB8DA8"/>
<path d="M318.233 237.946C318.233 237.946 361.533 300.139 363.366 313.669C365.2 327.2 359.733 341.985 323.466 341.748C287.2 341.51 255.766 337.678 247.533 339.272C239.3 340.866 220.933 341.917 217.8 341.001C214.666 340.086 203.833 313.669 204.366 310.075C204.9 306.48 210.366 304.378 210.366 304.378C210.366 304.378 208.833 302.004 209.266 299.732C209.7 297.46 228.7 302.173 232.866 302.648C237.033 303.123 246.133 313.601 248.466 314.144C250.8 314.686 307.666 305.836 307.666 305.836L275.9 270.67L318.233 237.946Z" fill="#FFEDE5"/>
<path d="M318.233 237.946L275.9 270.67L280.833 276.164L318.233 237.946Z" fill="#E0855C"/>
<path d="M307.667 305.836L329.2 302.004C329.2 302.004 318.9 301.461 317.2 280.436L307.667 305.836Z" fill="#E0855C"/>
<path d="M317.166 272.264H214.666C214.033 283.115 215 292.237 216.566 299.63C222.533 300.546 230.4 302.343 232.9 302.648C237.066 303.123 246.166 313.635 248.5 314.144C250.833 314.653 307.666 305.836 307.666 305.836C318.866 300.647 317.166 272.264 317.166 272.264Z" fill="#E3DCF7"/>
<path d="M238.533 303.462C231.866 300.139 216.566 299.664 216.566 299.664C222.533 300.58 230.4 302.377 232.9 302.682C237.066 303.157 246.166 313.669 248.5 314.178C249.533 314.415 260.8 312.855 273.266 311.058C254.333 313.025 245.166 306.751 238.533 303.462Z" fill="#3B2645"/>
<path d="M214.667 272.264C214.667 272.264 206.667 264.837 208.133 261.921C209.6 259.005 215.866 264.498 215.866 264.498C215.866 264.498 210.5 250.527 214.467 249.103C218.433 247.678 231.8 263.684 231.8 263.684C231.8 263.684 228.767 248.899 230.567 248.289C232.367 247.678 242.833 261.548 242.833 261.548C242.833 261.548 247 243.88 251.333 243.812C255.667 243.745 252.567 264.023 252.567 264.023C252.567 264.023 257.267 248.458 260.833 249.509C264.4 250.561 264.733 267.211 264.733 267.211C264.733 267.211 265.367 254.46 267.933 253.952C270.5 253.443 273.866 272.264 273.866 272.264H214.667Z" fill="#679E97"/>
<path d="M277.333 272.264C277.333 272.264 282.567 254.732 285.1 254.494C287.633 254.257 287.8 268.974 287.8 268.974C287.8 268.974 292.933 251.714 294.5 251.273C296.067 250.832 297.1 262.769 297.1 262.769C297.1 262.769 305.3 250.798 307.2 251.239C309.1 251.68 306.6 262.769 306.6 262.769C306.6 262.769 314.433 251.442 319.567 253.138C324.7 254.833 317.233 272.23 317.233 272.23L277.333 272.264Z" fill="#679E97"/>
<path d="M317.167 272.264C317.167 272.264 328.733 261.31 325.7 258.903C322.667 256.495 308.733 265.583 308.733 265.583C308.733 265.583 320.133 250.493 319.6 245.983C319.067 241.473 297.433 270.127 297.433 270.127C297.433 270.127 306.8 249.679 304.467 248.594C302.133 247.509 292.5 270.602 292.5 270.602C292.5 270.602 295.367 257.818 292.5 257.885C289.633 257.953 285.667 271.246 285.667 271.246C285.667 271.246 281.7 257.139 279 256.597C276.3 256.054 276.667 264.634 276.667 264.634C276.667 264.634 274.233 257.987 271.8 258.36C269.367 258.733 272.233 267.55 272.233 267.55C272.233 267.55 264.767 255.003 260.567 254.8C256.367 254.596 254.333 268.025 254.333 268.025C254.333 268.025 255.733 255.105 252.933 254.766C250.133 254.427 248.167 268.737 248.167 268.737C248.167 268.737 246.767 248.39 241.2 247.848C235.633 247.305 239.967 263.413 239.967 263.413C239.967 263.413 230.933 257.038 228.733 258.36C226.533 259.683 231.867 272.264 231.867 272.264H317.167Z" fill="#85CCC6"/>
<path d="M264.5 257.004C264.467 257.004 264.467 257.004 264.5 257.004C264.3 256.97 264.167 256.834 264.167 256.631L267.633 220.889C267.667 220.719 267.8 220.549 268 220.583C268.167 220.617 268.333 220.753 268.3 220.956L264.833 256.699C264.8 256.868 264.667 257.004 264.5 257.004Z" fill="#472938"/>
<defs>
<linearGradient id="paint0_linear_698_3881" x1="-7.99178e-06" y1="195.5" x2="291.756" y2="119.051" gradientUnits="userSpaceOnUse">
<stop stop-color="#92A3FD"/>
<stop offset="1" stop-color="#9DCEFF"/>
</linearGradient>
</defs>
</svg>
