<svg width="375" height="442" viewBox="0 0 375 442" fill="none" xmlns="http://www.w3.org/2000/svg">
<path d="M0.0641713 194.928C0.0641713 194.928 11.0916 147.061 40.531 162.613C81.5833 184.263 147.577 442 258 442C310.461 442 378 250.483 378 250.483V0H-3L0.0641713 194.928Z" fill="url(#paint0_linear_698_3952)"/>
<path d="M171.249 149.887C171.249 149.887 173.769 132.746 193.073 132.746C212.377 132.746 221.74 154.673 226.098 167.537C230.456 180.401 241.691 192.518 256.331 199.68C270.971 206.842 282.036 214.546 280.164 230.771C280.164 230.771 311.486 255.209 251.803 259.723C192.12 264.238 162.806 226.8 166.415 207.52C170.024 188.241 146.736 162.106 171.249 149.887Z" fill="#3B2645"/>
<path d="M207.372 191.025C207.372 191.025 204.649 217.364 216.224 219.672C216.224 219.672 221.025 266.953 194.026 266.953C167.027 266.953 169.785 221.097 169.785 221.097C169.785 221.097 181.293 218.076 180.374 192.654C179.454 167.231 207.747 173.341 207.372 191.025Z" fill="#FFEDE5"/>
<path d="M199.337 193.367C201.619 184.711 189.873 182.946 181.974 182.709C180.85 185.254 180.203 188.547 180.34 192.654C180.51 196.252 180.34 199.884 179.897 203.481C184.391 203.821 196.58 203.787 199.337 193.367Z" fill="#E0855C"/>
<path d="M177.088 185.289C179.524 184.455 180.231 180.099 178.666 175.56C177.101 171.022 173.857 168.02 171.421 168.855C168.985 169.69 168.279 174.046 169.844 178.584C171.408 183.122 174.652 186.124 177.088 185.289Z" fill="#E0855C"/>
<path d="M217.637 178.543C219.202 174.005 218.496 169.649 216.06 168.814C213.624 167.979 210.38 170.982 208.815 175.52C207.25 180.058 207.956 184.414 210.393 185.249C212.829 186.084 216.072 183.082 217.637 178.543Z" fill="#E0855C"/>
<path d="M172.713 154.13C172.713 154.13 170.841 199.578 192.426 199.68C209.211 199.748 214.011 179.349 214.284 156.37C214.556 133.391 172.986 136.48 172.713 154.13Z" fill="#FFEDE5"/>
<path d="M194.128 186.375C190.519 186.375 187.353 184.202 187.319 184.168C187.149 184.067 187.115 183.863 187.251 183.693C187.353 183.523 187.557 183.489 187.728 183.625C187.796 183.659 193.924 187.835 198.452 184.27C198.588 184.168 198.827 184.168 198.929 184.338C199.031 184.508 199.031 184.712 198.861 184.814C197.329 185.968 195.695 186.375 194.128 186.375Z" fill="#472938"/>
<path d="M180.101 167.571C180.101 167.571 182.927 169.37 187.694 167.91C187.694 167.876 183.642 172.018 180.101 167.571Z" fill="#472938"/>
<path d="M207.202 167.944C207.202 167.944 204.376 169.743 199.61 168.284C199.61 168.284 203.661 172.426 207.202 167.944Z" fill="#472938"/>
<path d="M178.467 162.038C178.467 162.038 182.042 158.101 187.251 159.323C189.907 159.934 188.885 156.675 184.085 156.879C179.284 157.083 178.467 162.038 178.467 162.038Z" fill="#472938"/>
<path d="M209.109 162.038C209.109 162.038 205.534 158.101 200.325 159.323C197.669 159.934 198.691 156.675 203.491 156.879C208.292 157.083 209.109 162.038 209.109 162.038Z" fill="#472938"/>
<path d="M193.311 178.772C192.29 178.772 190.111 178.025 189.362 177.278C189.09 177.007 188.987 176.735 189.021 176.464C189.09 176.056 189.396 174.766 189.839 173.137C190.417 170.795 191.166 167.91 191.405 166.485C191.643 165.127 191.405 163.701 190.758 162.479C190.656 162.31 190.724 162.106 190.894 162.004C191.064 161.902 191.269 161.97 191.371 162.14C192.086 163.498 192.358 165.059 192.086 166.586C191.847 168.046 191.098 170.965 190.519 173.307C190.111 174.868 189.77 176.226 189.736 176.565C189.736 176.599 189.77 176.667 189.873 176.803C190.588 177.516 192.835 178.195 193.482 178.093C194.333 177.957 196.103 177.142 196.716 176.43C196.852 176.294 197.056 176.294 197.193 176.396C197.329 176.531 197.329 176.735 197.227 176.871C196.478 177.685 194.571 178.602 193.584 178.738C193.447 178.772 193.379 178.772 193.311 178.772Z" fill="#472938"/>
<path d="M173.02 165.772C173.02 165.772 174.382 154.944 177.752 150.973C177.752 150.973 183.404 148.461 192.392 153.79C201.38 159.119 207.679 163.599 216.02 162.276C216.02 162.276 216.803 136.446 195.252 137.837C173.701 139.229 169.275 150.464 173.02 165.772Z" fill="#3B2645"/>
<path d="M315.436 325.368C315.095 324.824 314.074 325.741 314.074 325.741C314.074 325.741 313.018 324.553 310.158 325.401C307.298 326.25 298.821 333.514 298.821 333.514C295.008 333.446 288.777 337.179 288.777 337.179C288.777 337.179 284.079 335.245 279.823 328.864C275.567 322.482 270.937 319.36 270.937 319.36C270.937 319.36 260.961 279.376 254.22 254.428C247.377 257.314 238.491 268.684 232.158 277.849C232.294 282.159 232.431 284.908 232.431 284.908C232.431 284.908 254.629 343.628 257.489 345.393C260.349 347.158 292.999 351.096 293.339 350.858C293.68 350.62 296.676 351.401 297.902 350.858C299.127 350.315 300.625 351.197 302.123 350.179C303.621 349.161 306.209 350.722 307.264 349.738C308.32 348.754 310.158 349.161 311.384 348.584C312.61 348.007 319.453 338.367 319.589 336.636C319.725 334.905 315.776 325.911 315.436 325.368Z" fill="#FFEDE5"/>
<path d="M237.878 266.139C237.878 266.139 249.488 285.893 240.295 305.342L232.396 284.841L237.878 266.139Z" fill="#E0855C"/>
<path d="M254.186 254.361C251.769 245.4 249.76 238.374 248.773 235.828C245.028 226.053 238.116 225.612 238.116 225.612C231.307 225.713 231.647 262.099 232.124 277.781C238.457 268.616 247.343 257.28 254.186 254.361Z" fill="#AB8DA8"/>
<path d="M263.378 321.431C263.242 321.431 263.106 321.329 263.038 321.193C263.004 321.023 263.106 320.82 263.276 320.786L269.949 319.02C270.12 318.986 270.324 319.088 270.358 319.258C270.392 319.428 270.29 319.631 270.12 319.665L263.447 321.431C263.447 321.431 263.413 321.431 263.378 321.431Z" fill="#472938"/>
<path d="M296.404 344.545C296.233 344.545 296.063 344.409 296.063 344.205C295.893 340.064 290.99 339.895 290.786 339.895C290.582 339.895 290.446 339.725 290.446 339.555C290.446 339.352 290.616 339.216 290.786 339.216C290.854 339.216 296.506 339.42 296.71 344.171C296.778 344.375 296.608 344.545 296.404 344.545C296.438 344.545 296.438 344.545 296.404 344.545Z" fill="#472938"/>
<path d="M294.906 347.634C294.871 347.634 294.803 347.634 294.769 347.6C294.599 347.532 294.531 347.328 294.599 347.158C295.008 346.276 298.685 338.333 300.217 337.315C301.476 336.467 303.009 336.738 303.621 337.281C304.03 337.621 303.894 337.96 303.86 338.062C303.689 338.435 301.715 343.323 300.727 345.835C300.659 346.004 300.455 346.106 300.285 346.038C300.115 345.97 300.012 345.767 300.081 345.597C300.183 345.292 302.838 338.707 303.213 337.858C303.145 337.79 302.975 337.655 302.634 337.587C302.362 337.519 301.476 337.349 300.591 337.926C299.434 338.707 296.301 345.088 295.178 347.498C295.144 347.566 295.042 347.634 294.906 347.634Z" fill="#472938"/>
<path d="M305.664 345.088C305.46 345.088 305.324 344.952 305.324 344.748C305.324 344.681 305.324 344.681 306.277 341.32C307.06 338.571 308.32 334.091 308.456 333.378C308.252 333.174 307.298 332.767 306.651 332.971C306.141 333.14 304.575 335.448 303.417 337.485C303.315 337.655 303.111 337.688 302.94 337.621C302.77 337.519 302.736 337.315 302.804 337.145C303.417 336.093 305.46 332.631 306.413 332.292C307.23 332.02 308.286 332.394 308.762 332.733C309.001 332.903 309.137 333.106 309.137 333.276C309.137 333.48 308.66 335.211 306.924 341.456C306.481 343.051 306.039 344.579 306.005 344.748C306.005 344.952 305.834 345.088 305.664 345.088Z" fill="#472938"/>
<path d="M310.465 344.375C310.431 344.375 310.431 344.375 310.397 344.375C310.226 344.341 310.09 344.137 310.124 343.968C311.316 338.673 313.052 330.595 313.086 329.712C312.95 329.508 312.337 329.169 311.282 329.169C310.703 329.169 309.239 331.104 308.252 332.903C308.15 333.072 307.945 333.14 307.775 333.038C307.605 332.937 307.537 332.733 307.639 332.563C308.184 331.613 310.022 328.49 311.282 328.49C312.473 328.49 313.461 328.897 313.733 329.474C313.801 329.61 313.971 329.984 310.771 344.104C310.771 344.273 310.635 344.375 310.465 344.375Z" fill="#472938"/>
<path d="M313.018 329.508C312.882 329.508 312.746 329.407 312.678 329.271C312.133 327.54 313.733 325.605 313.801 325.537C313.937 325.401 314.142 325.367 314.278 325.503C314.414 325.639 314.448 325.843 314.312 325.978C314.312 326.012 312.882 327.709 313.325 329.101C313.393 329.271 313.291 329.474 313.086 329.542C313.086 329.508 313.052 329.508 313.018 329.508Z" fill="#472938"/>
<path d="M311.214 341.083C311.146 341.083 311.078 341.049 311.044 341.015C310.873 340.913 310.839 340.709 310.941 340.54L313.733 336.331L312.916 331.239C312.882 331.07 313.018 330.866 313.188 330.866C313.359 330.832 313.563 330.968 313.563 331.138L314.448 336.501L311.52 340.947C311.418 341.015 311.316 341.083 311.214 341.083Z" fill="#472938"/>
<path d="M75.1024 331.036C75.4088 330.493 76.4642 331.341 76.4642 331.341C76.4642 331.341 77.4856 330.119 80.3796 330.866C83.2735 331.613 92.0234 338.503 92.0234 338.503C95.8026 338.299 102.237 341.762 102.237 341.762C102.237 341.762 106.868 339.623 110.885 333.072C114.903 326.522 119.397 323.195 119.397 323.195C119.397 323.195 127.738 282.872 133.492 257.619C140.437 260.233 149.766 271.23 156.473 280.123C156.507 284.433 156.507 287.183 156.507 287.183C156.507 287.183 136.692 346.717 133.9 348.618C131.109 350.519 98.6284 355.712 98.322 355.508C98.0156 355.304 95.0195 356.187 93.7598 355.678C92.5001 355.169 91.0701 356.153 89.504 355.169C87.9379 354.184 85.4525 355.847 84.3289 354.931C83.2054 354.015 81.435 354.456 80.1412 353.947C78.8475 353.438 71.6637 344.07 71.4594 342.339C71.2552 340.607 74.796 331.579 75.1024 331.036Z" fill="#FFEDE5"/>
<path d="M150.243 268.786C150.243 268.786 139.45 289.015 149.391 308.057L156.439 287.25L150.243 268.786Z" fill="#E0855C"/>
<path d="M133.458 257.653C135.501 248.624 137.237 241.53 138.122 238.917C141.459 229.006 148.37 228.259 148.37 228.259C155.179 228.089 156.269 264.475 156.439 280.157C149.732 271.298 140.403 260.3 133.458 257.653Z" fill="#AB8DA8"/>
<path d="M126.955 325.029C126.921 325.029 126.921 325.029 126.887 325.029L120.146 323.535C119.975 323.501 119.839 323.297 119.873 323.127C119.907 322.958 120.112 322.822 120.282 322.856L127.023 324.35C127.193 324.384 127.329 324.587 127.295 324.757C127.261 324.927 127.091 325.029 126.955 325.029Z" fill="#472938"/>
<path d="M94.8493 349.432C94.645 349.432 94.5088 349.263 94.5088 349.093C94.5428 344.307 100.16 343.9 100.229 343.9C100.399 343.9 100.569 344.036 100.603 344.205C100.603 344.409 100.467 344.545 100.297 344.579C100.092 344.579 95.2238 344.952 95.2238 349.093C95.1897 349.297 95.0535 349.432 94.8493 349.432Z" fill="#472938"/>
<path d="M96.5175 352.453C96.3813 352.453 96.2792 352.385 96.2111 352.284C95.0194 349.942 91.6148 343.662 90.4232 342.916C89.504 342.373 88.6187 342.576 88.3464 342.644C88.04 342.746 87.8697 342.882 87.8016 342.95C88.2102 343.798 91.1041 350.281 91.2403 350.586C91.3084 350.756 91.2403 350.96 91.0701 351.028C90.8998 351.096 90.6956 351.028 90.6275 350.858C89.504 348.38 87.359 343.56 87.1888 343.187C87.0526 342.95 87.1548 342.644 87.3931 342.406C87.9719 341.863 89.504 341.524 90.7977 342.305C92.3979 343.255 96.3813 351.062 96.8239 351.944C96.892 352.114 96.8579 352.318 96.6877 352.385C96.6196 352.453 96.5515 352.453 96.5175 352.453Z" fill="#472938"/>
<path d="M85.6226 350.315C85.4524 350.315 85.3162 350.213 85.2821 350.043C85.2481 349.874 84.8055 348.516 84.2948 346.921C82.252 340.641 81.7073 338.876 81.7073 338.673C81.7073 338.469 81.8094 338.299 82.0477 338.13C82.5244 337.756 83.5458 337.349 84.3969 337.587C85.3843 337.858 87.5632 341.252 88.2101 342.271C88.3123 342.44 88.2442 342.644 88.108 342.746C87.9378 342.848 87.7335 342.78 87.6313 342.644C86.3716 340.641 84.7034 338.401 84.2267 338.266C83.5458 338.062 82.6265 338.537 82.4222 338.741C82.5925 339.352 84.0565 343.968 84.9757 346.751C85.9971 349.908 85.9971 349.908 85.9971 349.976C85.9971 350.145 85.8269 350.315 85.6226 350.315C85.6566 350.315 85.6566 350.315 85.6226 350.315Z" fill="#472938"/>
<path d="M80.8221 349.84C80.6859 349.84 80.5498 349.738 80.4817 349.602C76.7366 335.584 76.9068 335.211 76.9408 335.075C77.1792 334.464 78.1325 334.023 79.3581 333.989H79.3922C80.6519 333.989 82.5925 337.01 83.1713 337.926C83.2735 338.096 83.2054 338.299 83.0692 338.401C82.899 338.503 82.6947 338.435 82.5925 338.299C81.5371 336.568 80.005 334.668 79.4262 334.668C78.4048 334.702 77.792 335.075 77.6558 335.279C77.7239 336.161 79.8007 344.171 81.1966 349.399C81.2307 349.568 81.1285 349.772 80.9583 349.806C80.8562 349.806 80.8221 349.84 80.8221 349.84Z" fill="#472938"/>
<path d="M77.6899 335.109C77.6558 335.109 77.6218 335.109 77.5877 335.109C77.4175 335.075 77.2813 334.871 77.3494 334.702C77.7239 333.276 76.2599 331.647 76.2259 331.613C76.0897 331.477 76.1237 331.273 76.2599 331.138C76.3961 331.002 76.6004 331.036 76.7366 331.172C76.8046 331.239 78.4729 333.106 77.9963 334.871C77.9622 335.007 77.826 335.109 77.6899 335.109Z" fill="#472938"/>
<path d="M79.9369 346.547C79.8347 346.547 79.7326 346.513 79.6645 346.412L76.5663 342.101L77.2132 336.704C77.2472 336.534 77.4174 336.399 77.5877 336.399C77.7579 336.433 77.8941 336.602 77.8941 336.772L77.2813 341.897L80.2433 346.004C80.3454 346.14 80.3114 346.378 80.1752 346.479C80.0731 346.547 80.005 346.547 79.9369 346.547Z" fill="#472938"/>
<path d="M216.19 219.672L238.116 225.612C238.116 225.612 235.461 260.945 239.989 268.243C244.517 275.54 241.997 292.138 236.516 300.386C236.516 300.386 227.732 328.558 230.115 335.177C232.499 341.795 240.499 356.425 240.499 356.425C240.499 356.425 204.785 374.482 153.102 358.427C153.102 358.427 163.35 336.908 161.75 328.66C160.15 320.412 149.085 297.433 149.221 286.572C149.357 275.71 152.83 246.724 147.757 228.395L169.683 221.097C169.683 221.097 170.058 264.136 195.014 264.136C219.969 264.136 216.19 219.672 216.19 219.672Z" fill="#AB8DA8"/>
<path d="M236.55 300.386C236.55 300.386 233.826 305.817 216.531 308.091C216.531 308.091 233.18 309.347 231.511 319.326L236.55 300.386Z" fill="#543753"/>
<path d="M151.604 298.859C151.604 298.859 155.69 306.496 174.177 308.227C174.177 308.227 153.92 305.172 157.699 316.237L151.604 298.859Z" fill="#543753"/>
<path d="M149.323 288.472C149.153 288.472 148.983 288.337 148.983 288.167C148.949 287.59 148.915 287.081 148.949 286.572C148.983 284.128 149.187 280.801 149.391 276.932C149.698 271.637 150.072 265.052 150.174 258.298C150.174 258.094 150.311 257.958 150.515 257.958C150.719 257.958 150.855 258.128 150.855 258.298C150.753 265.052 150.379 271.671 150.072 276.966C149.834 280.835 149.664 284.162 149.63 286.606C149.63 287.081 149.63 287.59 149.664 288.133C149.664 288.269 149.528 288.438 149.323 288.472Z" fill="#472938"/>
<path d="M239.989 268.582C239.887 268.582 239.75 268.514 239.682 268.413C238.184 266.003 237.299 260.47 237.061 251.985C237.061 251.781 237.197 251.645 237.401 251.645C237.571 251.645 237.742 251.781 237.742 251.985C237.98 260.368 238.831 265.799 240.261 268.073C240.363 268.243 240.295 268.447 240.159 268.548C240.125 268.548 240.057 268.582 239.989 268.582Z" fill="#472938"/>
<path d="M154.294 355.915C154.294 355.915 173.53 363.213 196.035 362.432C218.54 361.652 263.583 345.427 284.624 348.754C305.664 352.08 304.302 361.007 303.587 365.114C302.872 369.221 259.191 430.825 220.821 430.825H162.023C162.023 430.825 89.7764 385.445 87.4272 372.343C85.078 359.242 86.7803 351.401 106.936 351.028C127.091 350.654 148.881 354.15 154.294 355.915Z" fill="#3B2645"/>
<path d="M195.286 375.907C195.286 375.907 224.021 363.994 248.024 359.887C248.024 359.887 263.481 383.782 258.953 403.977C258.919 403.977 203.968 391.962 195.286 375.907Z" fill="#FFEDE5"/>
<path d="M195.286 375.907C195.286 375.907 264.809 384.97 258.919 403.977C253.029 422.985 195.286 375.907 195.286 375.907Z" fill="#E0855C"/>
<path d="M226.541 410.291C226.541 410.291 155.282 416.4 139.654 419.591C124.027 422.781 108.195 421.356 98.5262 424.716C88.8571 428.076 83.5118 430.656 82.3542 430.792C81.1967 430.927 78.541 415.959 83.4097 410.664C83.4097 410.664 81.9116 405.267 88.7209 401.092C95.5302 396.917 106.834 402.416 111.021 401.092C115.209 399.769 118.205 398.547 122.665 399.497C127.125 400.447 138.02 403.129 138.02 403.129C138.02 403.129 194.128 367.591 226.541 410.291Z" fill="#FFEDE5"/>
<path d="M138.054 403.129L180.374 414.601L226.54 410.291C226.54 410.291 205.5 388.703 176.458 390.706C147.417 392.709 138.054 403.129 138.054 403.129Z" fill="#E0855C"/>
<path d="M152.796 360.464C152.796 360.464 174.654 364.876 206.249 381.372C237.844 397.868 263.991 391.113 273.218 394.304C282.445 397.494 299.944 395.017 302.804 397.494C305.664 399.972 307.537 404.317 305.834 406.184C305.834 406.184 313.461 423.63 312.746 424.784C312.031 425.938 309.375 425.836 308.115 425.565C306.856 425.293 295.757 419.794 282.989 417.52C270.222 415.246 235.018 410.359 206.964 408.933C178.91 407.507 138.054 404.69 138.054 404.69C138.054 404.69 139.007 370.375 152.796 360.464Z" fill="#FFEDE5"/>
<path d="M303.519 406.897C302.43 406.897 300.966 406.693 299.093 406.048C298.923 405.98 298.821 405.776 298.889 405.607C298.957 405.437 299.161 405.335 299.332 405.403C303.553 406.897 305.596 405.878 305.63 405.878C305.8 405.776 306.005 405.844 306.073 406.014C306.175 406.184 306.107 406.388 305.936 406.455C305.902 406.455 305.119 406.897 303.519 406.897Z" fill="#472938"/>
<path d="M86.8483 411.717C84.4651 411.717 83.3075 410.97 83.2394 410.936C83.0692 410.834 83.0351 410.63 83.1373 410.461C83.2394 410.291 83.4437 410.257 83.6139 410.359C83.6139 410.359 84.8396 411.106 87.2229 411.004C89.7082 410.936 92.3979 409.714 92.4319 409.714C92.6022 409.646 92.8065 409.714 92.8746 409.883C92.9426 410.053 92.8746 410.257 92.7043 410.325C92.6022 410.393 89.8444 411.581 87.2569 411.683C87.1207 411.717 86.9845 411.717 86.8483 411.717Z" fill="#472938"/>
<defs>
<linearGradient id="paint0_linear_698_3952" x1="-94.5208" y1="-163.239" x2="416.07" y2="-134.79" gradientUnits="userSpaceOnUse">
<stop offset="0.352712" stop-color="#9DCEFF"/>
<stop offset="1" stop-color="#92A3FD"/>
</linearGradient>
</defs>
</svg>
