<?xml version="1.0" encoding="us-ascii" standalone="no"?><svg xmlns="http://www.w3.org/2000/svg" xmlns:xlink="http://www.w3.org/1999/xlink" contentStyleType="text/css" height="526px" preserveAspectRatio="none" style="width:1888px;height:526px;background:#FFFFFF;" version="1.1" viewBox="0 0 1888 526" width="1888px" zoomAndPan="magnify"><defs/><g><!--class MainActivity--><g id="elem_MainActivity"><rect codeLine="2" fill="#F1F1F1" height="97.4648" id="MainActivity" rx="2.5" ry="2.5" style="stroke:#181818;stroke-width:0.5;" width="198" x="1250.5" y="7"/><ellipse cx="1304.25" cy="23" fill="#ADD1B2" rx="11" ry="11" style="stroke:#181818;stroke-width:1.0;"/><path d="M1306.7231,29.1431 Q1306.1421,29.4419 1305.5029,29.5913 Q1304.8638,29.7407 1304.1582,29.7407 Q1301.6514,29.7407 1300.3315,28.0889 Q1299.0117,26.437 1299.0117,23.3159 Q1299.0117,20.1865 1300.3315,18.5347 Q1301.6514,16.8828 1304.1582,16.8828 Q1304.8638,16.8828 1305.5112,17.0322 Q1306.1587,17.1816 1306.7231,17.4805 L1306.7231,20.2031 Q1306.0923,19.6221 1305.4988,19.3523 Q1304.9053,19.0825 1304.2744,19.0825 Q1302.9297,19.0825 1302.2449,20.1492 Q1301.5601,21.2158 1301.5601,23.3159 Q1301.5601,25.4077 1302.2449,26.4744 Q1302.9297,27.541 1304.2744,27.541 Q1304.9053,27.541 1305.4988,27.2712 Q1306.0923,27.0015 1306.7231,26.4204 Z " fill="#000000"/><text fill="#000000" font-family="sans-serif" font-size="14" lengthAdjust="spacing" textLength="82" x="1324.75" y="28.291">MainActivity</text><line style="stroke:#181818;stroke-width:0.5;" x1="1251.5" x2="1447.5" y1="39" y2="39"/><line style="stroke:#181818;stroke-width:0.5;" x1="1251.5" x2="1447.5" y1="47" y2="47"/><ellipse cx="1261.5" cy="60.7441" fill="#84BE84" rx="3" ry="3" style="stroke:#038048;stroke-width:1.0;"/><text fill="#000000" font-family="sans-serif" font-size="14" lengthAdjust="spacing" textLength="120" x="1270.5" y="64.5352">onCreate(Bundle)</text><ellipse cx="1261.5" cy="77.2324" fill="#84BE84" rx="3" ry="3" style="stroke:#038048;stroke-width:1.0;"/><text fill="#000000" font-family="sans-serif" font-size="14" lengthAdjust="spacing" textLength="82" x="1270.5" y="81.0234">onResume()</text><rect fill="#F24D5C" height="6" style="stroke:#C82930;stroke-width:1.0;" width="6" x="1258.5" y="90.7207"/><text fill="#000000" font-family="sans-serif" font-size="14" lengthAdjust="spacing" textLength="172" x="1270.5" y="97.5117">initGlobalDependencies()</text></g><!--class MainActivityViewModel--><g id="elem_MainActivityViewModel"><rect codeLine="9" fill="#F1F1F1" height="113.9531" id="MainActivityViewModel" rx="2.5" ry="2.5" style="stroke:#181818;stroke-width:0.5;" width="387" x="1156" y="165.47"/><ellipse cx="1267.25" cy="181.47" fill="#ADD1B2" rx="11" ry="11" style="stroke:#181818;stroke-width:1.0;"/><path d="M1269.7231,187.6131 Q1269.1421,187.9119 1268.5029,188.0613 Q1267.8638,188.2107 1267.1582,188.2107 Q1264.6514,188.2107 1263.3315,186.5589 Q1262.0117,184.907 1262.0117,181.7859 Q1262.0117,178.6565 1263.3315,177.0047 Q1264.6514,175.3528 1267.1582,175.3528 Q1267.8638,175.3528 1268.5112,175.5022 Q1269.1587,175.6516 1269.7231,175.9505 L1269.7231,178.6731 Q1269.0923,178.0921 1268.4988,177.8223 Q1267.9053,177.5525 1267.2744,177.5525 Q1265.9297,177.5525 1265.2449,178.6192 Q1264.5601,179.6858 1264.5601,181.7859 Q1264.5601,183.8777 1265.2449,184.9444 Q1265.9297,186.011 1267.2744,186.011 Q1267.9053,186.011 1268.4988,185.7412 Q1269.0923,185.4715 1269.7231,184.8904 Z " fill="#000000"/><text fill="#000000" font-family="sans-serif" font-size="14" lengthAdjust="spacing" textLength="156" x="1287.75" y="186.761">MainActivityViewModel</text><line style="stroke:#181818;stroke-width:0.5;" x1="1157" x2="1542" y1="197.47" y2="197.47"/><ellipse cx="1167" cy="211.2141" fill="none" rx="3" ry="3" style="stroke:#038048;stroke-width:1.0;"/><text fill="#000000" font-family="sans-serif" font-size="14" lengthAdjust="spacing" textLength="208" x="1176" y="215.0052">isLoading: LiveData&lt;Boolean&gt;</text><ellipse cx="1167" cy="227.7024" fill="none" rx="3" ry="3" style="stroke:#038048;stroke-width:1.0;"/><text fill="#000000" font-family="sans-serif" font-size="14" lengthAdjust="spacing" textLength="360" x="1176" y="231.4934">isHealthConnectSDKUnavailable: LiveData&lt;Boolean&gt;</text><line style="stroke:#181818;stroke-width:0.5;" x1="1157" x2="1542" y1="238.4466" y2="238.4466"/><ellipse cx="1167" cy="252.1907" fill="#84BE84" rx="3" ry="3" style="stroke:#038048;stroke-width:1.0;"/><text fill="#000000" font-family="sans-serif" font-size="14" lengthAdjust="spacing" textLength="179" x="1176" y="255.9817">isUserLoggedIn(): Boolean</text><ellipse cx="1167" cy="268.679" fill="#84BE84" rx="3" ry="3" style="stroke:#038048;stroke-width:1.0;"/><text fill="#000000" font-family="sans-serif" font-size="14" lengthAdjust="spacing" textLength="361" x="1176" y="272.47">checkAndInstallHealthConnectSDK(context: Context)</text></g><!--class AccountService--><g id="elem_AccountService"><rect codeLine="16" fill="#F1F1F1" height="163.418" id="AccountService" rx="2.5" ry="2.5" style="stroke:#181818;stroke-width:0.5;" width="821" x="863" y="356.42"/><ellipse cx="1217.25" cy="372.42" fill="#B4A7E5" rx="11" ry="11" style="stroke:#181818;stroke-width:1.0;"/><path d="M1213.6777,368.6851 L1213.6777,366.5269 L1221.0571,366.5269 L1221.0571,368.6851 L1218.5918,368.6851 L1218.5918,376.7618 L1221.0571,376.7618 L1221.0571,378.92 L1213.6777,378.92 L1213.6777,376.7618 L1216.1431,376.7618 L1216.1431,368.6851 Z " fill="#000000"/><text fill="#000000" font-family="sans-serif" font-size="14" font-style="italic" lengthAdjust="spacing" textLength="104" x="1237.75" y="377.711">AccountService</text><line style="stroke:#181818;stroke-width:0.5;" x1="864" x2="1683" y1="388.42" y2="388.42"/><line style="stroke:#181818;stroke-width:0.5;" x1="864" x2="1683" y1="396.42" y2="396.42"/><ellipse cx="874" cy="410.1641" fill="#84BE84" rx="3" ry="3" style="stroke:#038048;stroke-width:1.0;"/><text fill="#000000" font-family="sans-serif" font-size="14" lengthAdjust="spacing" textLength="694" x="883" y="413.9552">authenticate(email: String, password: String, dbServiceRef: DBService, onResult: (Throwable?) -&gt; Unit)</text><ellipse cx="874" cy="426.6524" fill="#84BE84" rx="3" ry="3" style="stroke:#038048;stroke-width:1.0;"/><text fill="#000000" font-family="sans-serif" font-size="14" lengthAdjust="spacing" textLength="795" x="883" y="430.4434">createAccountWithEmailPassword(email: String, password: String, userName: String, onResult: (Throwable?) -&gt; Unit)</text><ellipse cx="874" cy="443.1407" fill="#84BE84" rx="3" ry="3" style="stroke:#038048;stroke-width:1.0;"/><text fill="#000000" font-family="sans-serif" font-size="14" lengthAdjust="spacing" textLength="219" x="883" y="446.9317">getCurrentUser(): FirebaseUser?</text><ellipse cx="874" cy="459.629" fill="#84BE84" rx="3" ry="3" style="stroke:#038048;stroke-width:1.0;"/><text fill="#000000" font-family="sans-serif" font-size="14" lengthAdjust="spacing" textLength="324" x="883" y="463.42">sendPasswordResetEmail(emailAddress: String)</text><ellipse cx="874" cy="476.1173" fill="#84BE84" rx="3" ry="3" style="stroke:#038048;stroke-width:1.0;"/><text fill="#000000" font-family="sans-serif" font-size="14" lengthAdjust="spacing" textLength="617" x="883" y="479.9083">signInWithGoogle(context: Context, dbServiceRef: DBService): Flow&lt;Result&lt;AuthResult&gt;&gt;</text><ellipse cx="874" cy="492.6055" fill="#84BE84" rx="3" ry="3" style="stroke:#038048;stroke-width:1.0;"/><text fill="#000000" font-family="sans-serif" font-size="14" lengthAdjust="spacing" textLength="276" x="883" y="496.3966">signOut(onResult: (Throwable?) -&gt; Unit)</text><ellipse cx="874" cy="509.0938" fill="#84BE84" rx="3" ry="3" style="stroke:#038048;stroke-width:1.0;"/><text fill="#000000" font-family="sans-serif" font-size="14" lengthAdjust="spacing" textLength="179" x="883" y="512.8848">isUserLoggedIn(): Boolean</text></g><!--class AccountServiceImpl--><g id="elem_AccountServiceImpl"><rect codeLine="27" fill="#F1F1F1" height="163.418" id="AccountServiceImpl" rx="2.5" ry="2.5" style="stroke:#181818;stroke-width:0.5;" width="821" x="7" y="356.42"/><ellipse cx="346.25" cy="372.42" fill="#ADD1B2" rx="11" ry="11" style="stroke:#181818;stroke-width:1.0;"/><path d="M348.7231,378.5631 Q348.1421,378.8619 347.5029,379.0113 Q346.8638,379.1607 346.1582,379.1607 Q343.6514,379.1607 342.3315,377.5089 Q341.0117,375.857 341.0117,372.7359 Q341.0117,369.6065 342.3315,367.9547 Q343.6514,366.3028 346.1582,366.3028 Q346.8638,366.3028 347.5112,366.4522 Q348.1587,366.6016 348.7231,366.9005 L348.7231,369.6231 Q348.0923,369.0421 347.4988,368.7723 Q346.9053,368.5025 346.2744,368.5025 Q344.9297,368.5025 344.2449,369.5692 Q343.5601,370.6358 343.5601,372.7359 Q343.5601,374.8277 344.2449,375.8944 Q344.9297,376.961 346.2744,376.961 Q346.9053,376.961 347.4988,376.6912 Q348.0923,376.4215 348.7231,375.8404 Z " fill="#000000"/><text fill="#000000" font-family="sans-serif" font-size="14" lengthAdjust="spacing" textLength="134" x="366.75" y="377.711">AccountServiceImpl</text><line style="stroke:#181818;stroke-width:0.5;" x1="8" x2="827" y1="388.42" y2="388.42"/><line style="stroke:#181818;stroke-width:0.5;" x1="8" x2="827" y1="396.42" y2="396.42"/><ellipse cx="18" cy="410.1641" fill="#84BE84" rx="3" ry="3" style="stroke:#038048;stroke-width:1.0;"/><text fill="#000000" font-family="sans-serif" font-size="14" lengthAdjust="spacing" textLength="694" x="27" y="413.9552">authenticate(email: String, password: String, dbServiceRef: DBService, onResult: (Throwable?) -&gt; Unit)</text><ellipse cx="18" cy="426.6524" fill="#84BE84" rx="3" ry="3" style="stroke:#038048;stroke-width:1.0;"/><text fill="#000000" font-family="sans-serif" font-size="14" lengthAdjust="spacing" textLength="795" x="27" y="430.4434">createAccountWithEmailPassword(email: String, password: String, userName: String, onResult: (Throwable?) -&gt; Unit)</text><ellipse cx="18" cy="443.1407" fill="#84BE84" rx="3" ry="3" style="stroke:#038048;stroke-width:1.0;"/><text fill="#000000" font-family="sans-serif" font-size="14" lengthAdjust="spacing" textLength="219" x="27" y="446.9317">getCurrentUser(): FirebaseUser?</text><ellipse cx="18" cy="459.629" fill="#84BE84" rx="3" ry="3" style="stroke:#038048;stroke-width:1.0;"/><text fill="#000000" font-family="sans-serif" font-size="14" lengthAdjust="spacing" textLength="324" x="27" y="463.42">sendPasswordResetEmail(emailAddress: String)</text><ellipse cx="18" cy="476.1173" fill="#84BE84" rx="3" ry="3" style="stroke:#038048;stroke-width:1.0;"/><text fill="#000000" font-family="sans-serif" font-size="14" lengthAdjust="spacing" textLength="617" x="27" y="479.9083">signInWithGoogle(context: Context, dbServiceRef: DBService): Flow&lt;Result&lt;AuthResult&gt;&gt;</text><ellipse cx="18" cy="492.6055" fill="#84BE84" rx="3" ry="3" style="stroke:#038048;stroke-width:1.0;"/><text fill="#000000" font-family="sans-serif" font-size="14" lengthAdjust="spacing" textLength="276" x="27" y="496.3966">signOut(onResult: (Throwable?) -&gt; Unit)</text><ellipse cx="18" cy="509.0938" fill="#84BE84" rx="3" ry="3" style="stroke:#038048;stroke-width:1.0;"/><text fill="#000000" font-family="sans-serif" font-size="14" lengthAdjust="spacing" textLength="179" x="27" y="512.8848">isUserLoggedIn(): Boolean</text></g><!--class AccountModule--><g id="elem_AccountModule"><rect codeLine="37" fill="#F1F1F1" height="64.4883" id="AccountModule" rx="2.5" ry="2.5" style="stroke:#181818;stroke-width:0.5;" width="304" x="1577.5" y="190.2"/><ellipse cx="1671.75" cy="206.2" fill="#ADD1B2" rx="11" ry="11" style="stroke:#181818;stroke-width:1.0;"/><path d="M1674.2231,212.3431 Q1673.6421,212.6419 1673.0029,212.7913 Q1672.3638,212.9407 1671.6582,212.9407 Q1669.1514,212.9407 1667.8315,211.2889 Q1666.5117,209.637 1666.5117,206.5159 Q1666.5117,203.3865 1667.8315,201.7347 Q1669.1514,200.0828 1671.6582,200.0828 Q1672.3638,200.0828 1673.0112,200.2322 Q1673.6587,200.3816 1674.2231,200.6805 L1674.2231,203.4031 Q1673.5923,202.8221 1672.9988,202.5523 Q1672.4053,202.2825 1671.7744,202.2825 Q1670.4297,202.2825 1669.7449,203.3492 Q1669.0601,204.4158 1669.0601,206.5159 Q1669.0601,208.6077 1669.7449,209.6744 Q1670.4297,210.741 1671.7744,210.741 Q1672.4053,210.741 1672.9988,210.4712 Q1673.5923,210.2015 1674.2231,209.6204 Z " fill="#000000"/><text fill="#000000" font-family="sans-serif" font-size="14" lengthAdjust="spacing" textLength="107" x="1692.25" y="211.491">AccountModule</text><line style="stroke:#181818;stroke-width:0.5;" x1="1578.5" x2="1880.5" y1="222.2" y2="222.2"/><line style="stroke:#181818;stroke-width:0.5;" x1="1578.5" x2="1880.5" y1="230.2" y2="230.2"/><ellipse cx="1588.5" cy="243.9441" fill="#84BE84" rx="3" ry="3" style="stroke:#038048;stroke-width:1.0;"/><text fill="#000000" font-family="sans-serif" font-size="14" lengthAdjust="spacing" textLength="278" x="1597.5" y="247.7352">provideAccountService(): AccountService</text></g><!--link MainActivity to MainActivityViewModel--><g id="link_MainActivity_MainActivityViewModel"><path codeLine="41" d="M1349.5,104.82 C1349.5,123.72 1349.5,139.54 1349.5,159.16 " fill="none" id="MainActivity-to-MainActivityViewModel" style="stroke:#181818;stroke-width:1.0;"/><polygon fill="#181818" points="1349.5,165.16,1353.5,156.16,1349.5,160.16,1345.5,156.16,1349.5,165.16" style="stroke:#181818;stroke-width:1.0;"/></g><!--reverse link MainActivity to AccountService--><g id="link_MainActivity_AccountService"><path codeLine="42" d="M1238.9811,87.0027 C1196.8811,103.4327 1163.12,125.09 1138.5,165.47 C1112.14,208.71 1120.94,231.92 1138.5,279.42 C1148.74,307.14 1166.28,333.29 1185.38,356.02 " fill="none" id="MainActivity-backto-AccountService" style="stroke:#181818;stroke-width:1.0;"/><polygon fill="none" points="1250.16,82.64,1243.1163,81.0951,1238.9811,87.0027,1246.0248,88.5476,1250.16,82.64" style="stroke:#181818;stroke-width:1.0;"/></g><!--reverse link MainActivity to AccountModule--><g id="link_MainActivity_AccountModule"><path codeLine="43" d="M1459.8507,104.5713 C1524.9507,132.7813 1597.57,164.26 1656.55,189.83 " fill="none" id="MainActivity-backto-AccountModule" style="stroke:#181818;stroke-width:1.0;"/><polygon fill="none" points="1448.84,99.8,1452.7549,105.8559,1459.8507,104.5713,1455.9358,98.5154,1448.84,99.8" style="stroke:#181818;stroke-width:1.0;"/></g><!--link AccountServiceImpl to AccountService--><g id="link_AccountServiceImpl_AccountService"><path codeLine="44" d="M828.36,438.13 C839.81,438.13 833.26,438.13 844.7,438.13 " fill="none" id="AccountServiceImpl-to-AccountService" style="stroke:#181818;stroke-width:1.0;"/><polygon fill="none" points="862.7,438.13,844.7,432.13,844.7,444.13,862.7,438.13" style="stroke:#181818;stroke-width:1.0;"/></g><!--reverse link AccountModule to AccountService--><g id="link_AccountModule_AccountService"><path codeLine="45" d="M1651.3533,260.0706 C1594.6133,286.6506 1521.74,320.8 1446.49,356.06 " fill="none" id="AccountModule-backto-AccountService" style="stroke:#181818;stroke-width:1.0;"/><polygon fill="#181818" points="1662.22,254.98,1655.0898,253.903,1651.3533,260.0706,1658.4835,261.1475,1662.22,254.98" style="stroke:#181818;stroke-width:1.0;"/><text fill="#000000" font-family="sans-serif" font-size="13" lengthAdjust="spacing" textLength="157" x="1543.34" y="322.9884">Provides Account Service</text></g><!--SRC=[xLJDRjim3BxdANHqrle5ZC25asnTi7GhcgKxqn9h2rEaGAAT3LtUVL9aDt3IRBrlFaca_FsG1Ba2vzWTI5rmagsad-nvnFntPVJC8X0cqqOBXUC- -e2ksM0IxwdKacwLAK7DSOjQeEOIdS_kHwCHFmD_bBYxCm9LpoBTqe2GkihOKhOu1uB9r1Y5eFF-nKS4HVNCQ8sSLlDFQmqjI0MbmZ_yjNPebwQgK2nqCivObuzfNYF_NcYVSWHAdJ8at6Z27vInMJmS_4X_j4_0aHMScqRJ2cqh_JLwUORIaGLE-yW13TMeIV9GHDnunHbRaVLUhzdM5sPdh3X6HDcXFU1JnkRJxdRDOiMLrv9yhQtP1TitOvRcRErhtxM57rhLoVecgNuV-Euxbh-pDxvOds63nyYRQ2kaMMEjTncg7QhyGLeimM6utyH7pez5hyHZ8XsqHKs541QTwsaxM2ShlT31ngqnbSApTbmiLr2Wp6uIjKyAtu9upFCZz9U6aZVPkpn4-twuXvEms6nV9lj_-_-TzlkLrgX-3rnjhMcbmE5eXD-7aO0oMBofftzrMGwVcJGzHRgKZxf6hmnf-Yi_1HbwUNV6mZ9s7vsz-6PTwZS0]--></g></svg>